<?xml version="1.0" standalone="no"?><!DOCTYPE svg PUBLIC "-//W3C//DTD SVG 1.1//EN" "http://www.w3.org/Graphics/SVG/1.1/DTD/svg11.dtd"><svg t="1732886748881" class="icon" viewBox="0 0 1024 1024" version="1.1" xmlns="http://www.w3.org/2000/svg" p-id="2016" xmlns:xlink="http://www.w3.org/1999/xlink" width="200" height="200"><path d="M523.49952 641.42336c-161.97632-2.2528-291.85536-65.78688-356.41344-174.29504-63.616-107.16672-52.9152-253.57824 28.61568-391.66464 5.79584-9.71776 17.14688-15.98976 28.92288-15.98976 115.05664 1.59744 214.35904 38.46656 287.23712 106.61376 6.31808 5.89824 9.856 13.7984 9.97376 22.2464 0.11776 8.44288-3.20512 16.4352-9.36448 22.49728a33.41312 33.41312 0 0 1-23.62368 9.58464 33.25952 33.25952 0 0 1-22.89152-8.97536C411.07968 160.11776 336.41472 129.81248 250.04032 123.79136l-6.79936-0.47616-3.08224 5.85728C180.992 241.73568 175.10912 353.43872 224.01024 435.6352c52.75136 88.65792 162.25792 140.57984 300.4416 142.45888a33.17248 33.17248 0 0 1 23.08608 9.55392c6.12352 6.06208 9.43104 14.0544 9.3184 22.51264-0.14848 17.2288-14.80192 31.2576-32.66048 31.2576h-0.69632z" p-id="2017"></path><path d="M508.20096 998.4c-18.11968 0-32.86016-14.18752-32.86016-31.62112v-267.97056c0-17.4336 14.74048-31.616 32.86016-31.616s32.86016 14.1824 32.86016 31.616v267.97056c0 17.4336-14.74048 31.62112-32.86016 31.62112z m-171.8016-147.8912a32.83456 32.83456 0 0 1-15.7952-3.9424 386.05824 386.05824 0 0 1-92.8-68.93056c-6.04672-6.09792-9.2672-14.1056-9.06752-22.5536 0.19968-8.44288 3.79904-16.29696 10.13248-22.10304a33.36704 33.36704 0 0 1 22.71744-8.81152c9.06752 0 17.52576 3.49184 23.808 9.82528a322.4832 322.4832 0 0 0 77.04576 57.2416c7.69024 4.096 13.2608 10.83392 15.68256 18.97984a30.2592 30.2592 0 0 1-2.86208 23.99232c-5.81632 10.05568-16.87552 16.30208-28.86144 16.30208z m349.19936-3.07712c-11.74016 0-22.67648-6.04672-28.53888-15.77472a30.43328 30.43328 0 0 1-3.3024-23.99232c2.25792-8.17664 7.68-14.99648 15.26272-19.21024 26.74688-14.91968 50.96448-33.24416 71.9872-54.46144 6.26688-6.28736 14.68416-9.74336 23.71072-9.74336 8.47872 0 16.5376 3.12832 22.69184 8.8064a31.01696 31.01696 0 0 1 1.05984 44.80512c-25.33888 25.59488-54.47168 47.59552-86.58432 65.39776a33.36704 33.36704 0 0 1-16.28672 4.1728z m-153.69728-207.44704c-10.36288 0-19.89632-4.54656-26.14272-12.4672-96.70144-122.46016-121.76896-255.5904-70.58944-374.87104C485.9392 134.4512 607.1808 54.46656 767.7952 33.20832c1.70496-0.256 3.3024-0.37888 4.93568-0.37888 9.91232 0 19.52256 4.68992 25.70752 12.544 98.11456 124.21632 125.27104 263.19872 74.496 381.31712-48.78848 113.43872-171.48928 191.07328-336.63488 212.99712-1.44384 0.1536-2.9184 0.29696-4.39808 0.29696z m219.0848-540.09856c-123.4688 22.59456-216.42752 87.07072-255.04768 176.896-39.00416 90.69568-22.34368 194.43712 46.90432 292.10112l3.75296 5.2992 6.5536-1.16224c91.73504-16.22528 211.13856-58.96704 259.01568-170.46016 38.58944-89.75872 20.0704-198.57408-50.80576-298.55232l-3.78368-5.33504-6.58944 1.21344z" p-id="2018"></path></svg>