<?xml version="1.0" standalone="no"?><!DOCTYPE svg PUBLIC "-//W3C//DTD SVG 1.1//EN" "http://www.w3.org/Graphics/SVG/1.1/DTD/svg11.dtd"><svg height="1024" node-id="1" sillyvg="true" template-height="1024" template-width="1024" version="1.1" viewBox="0 0 1024 1024" width="1024" xmlns="http://www.w3.org/2000/svg" xmlns:xlink="http://www.w3.org/1999/xlink"><defs node-id="168"><clipPath id="clip-购物" node-id="9"><path d="M 0.00 0.00 L 1024.00 0.00 L 1024.00 1024.00 L 0.00 1024.00 Z" fill="#000000" fill-rule="nonzero" node-id="171" stroke="none" target-height="1024" target-width="1024" target-x="0" target-y="0"></path></clipPath><clipPath id="clip-path" node-id="3"><path d="M 264.20 796.70 L 254.30 802.00 L 248.10 804.80 L 235.70 806.40 L 226.80 808.70 L 222.50 810.30 L 218.70 812.30 L 216.40 814.00 L 214.70 815.80 L 213.40 817.80 L 211.10 823.20 L 209.70 828.30 L 208.90 832.90 L 208.60 836.60 L 208.80 839.80 L 210.00 845.30 L 212.10 848.60 L 213.80 850.20 L 216.90 852.30 L 224.60 855.90 L 232.70 858.20 L 238.50 858.90 L 256.20 858.40 L 291.20 856.70 L 339.30 853.80 L 340.70 853.40 L 344.00 851.60 L 345.80 850.20 L 347.80 848.00 L 349.90 844.30 L 350.80 841.90 L 350.80 840.60 L 350.10 839.00 L 348.40 836.80 L 345.10 833.70 L 334.60 826.00 L 321.10 817.60 L 299.60 805.50 L 274.70 792.60 Z" fill="#000000" fill-rule="nonzero" id="路径_306" node-id="4" stroke="none" target-height="66.30005" target-width="142.19998" target-x="208.6" target-y="792.6"></path></clipPath><clipPath id="clip-path-2" node-id="5"><path d="M 788.20 805.30 L 849.20 814.00 L 873.80 828.00 L 883.80 834.10 L 885.90 836.50 L 887.60 839.10 L 888.80 841.90 L 889.60 844.90 L 889.90 848.00 L 889.70 851.20 L 781.60 849.00 Z" fill="#000000" fill-rule="nonzero" id="路径_342" node-id="6" stroke="none" target-height="45.900024" target-width="108.30005" target-x="781.6" target-y="805.3"></path></clipPath><clipPath id="clip-path-3" node-id="7"><path d="M 901.50 792.20 L 963.10 794.50 L 989.10 805.90 L 999.70 810.90 L 1002.00 813.00 L 1004.00 815.50 L 1005.50 818.20 L 1006.60 821.10 L 1007.20 824.10 L 1007.30 827.30 L 899.50 836.50 Z" fill="#000000" fill-rule="nonzero" id="路径_342-2" node-id="8" stroke="none" target-height="44.299988" target-width="107.79999" target-x="899.5" target-y="792.2"></path></clipPath></defs><g clip-path="url(#clip-购物)" id="购物" node-id="11"><path d="M 0.00 0.00 L 1024.00 0.00 L 1024.00 1024.00 L 0.00 1024.00 Z" fill="#ffffff" fill-opacity="0" fill-rule="nonzero" node-id="185" stroke="none" target-height="1024" target-width="1024" target-x="0" target-y="0"></path><path d="M 230.30 855.80 L 229.40 857.40 L 226.00 859.30 L 221.20 860.80 L 213.90 862.40 L 205.80 863.70 L 184.80 865.80 L 172.40 866.50 L 145.60 867.00 L 118.80 866.50 L 106.40 865.80 L 85.40 863.70 L 77.20 862.40 L 69.90 860.80 L 65.20 859.30 L 61.70 857.40 L 60.90 855.80 L 61.70 854.20 L 65.20 852.20 L 69.90 850.70 L 77.20 849.10 L 85.40 847.80 L 106.40 845.70 L 118.80 845.00 L 145.60 844.50 L 172.40 845.00 L 184.80 845.70 L 205.80 847.80 L 213.90 849.10 L 221.20 850.70 L 226.00 852.20 L 229.40 854.20 L 230.30 855.80 Z" fill="#b6cce3" fill-rule="nonzero" group-id="1,12" id="椭圆_79" node-id="14" stroke="none" target-height="22.5" target-width="169.4" target-x="60.9" target-y="844.5"></path><path d="M 78.40 554.30 L 81.20 553.80 L 83.80 554.00 L 86.50 554.60 L 89.10 555.80 L 91.50 557.40 L 96.30 562.00 L 98.80 565.10 L 104.50 574.40 L 107.30 580.10 L 111.10 588.90 L 114.70 598.60 L 117.80 608.60 L 123.10 628.80 L 126.90 647.50 L 128.70 661.10 L 129.00 673.70 L 128.40 683.40 L 127.20 693.00 L 125.50 702.50 L 123.50 711.30 L 121.20 719.70 L 118.70 726.80 L 116.90 731.30 L 113.50 737.50 L 111.60 740.00 L 110.10 741.30 L 108.80 741.70 L 106.10 741.00 L 101.90 737.50 L 99.20 734.50 L 96.10 730.40 L 89.20 719.60 L 82.00 705.90 L 75.00 690.30 L 68.30 672.60 L 62.50 653.40 L 58.10 634.10 L 56.60 625.00 L 55.60 615.80 L 55.00 607.30 L 54.90 599.40 L 55.40 591.40 L 56.30 584.40 L 57.80 578.10 L 59.30 573.40 L 61.10 569.30 L 63.20 565.70 L 65.50 562.60 L 68.20 559.70 L 71.30 557.40 L 74.60 555.60 L 78.40 554.30 Z" fill="#076e38" fill-rule="nonzero" group-id="1,13" id="路径_268" node-id="16" stroke="none" target-height="187.90002" target-width="74.1" target-x="54.9" target-y="553.8"></path><path d="M 78.90 560.30 L 85.30 601.20 L 109.90 748.00" fill="none" group-id="1,13,57" id="路径_269" node-id="17" stroke="#004c0e" stroke-linecap="butt" stroke-width="2.000237" target-height="187.70001" target-width="31" target-x="78.9" target-y="560.3"></path><path d="M 66.20 569.60 L 82.20 583.90 L 97.70 567.40" fill="none" group-id="1,13,58" id="路径_270" node-id="18" stroke="#004c0e" stroke-linecap="butt" stroke-width="2.000237" target-height="16.5" target-width="31.5" target-x="66.2" target-y="567.4"></path><path d="M 59.30 590.10 L 87.60 614.50 L 107.90 592.10" fill="none" group-id="1,13,59" id="路径_271" node-id="19" stroke="#004c0e" stroke-linecap="butt" stroke-width="2.000237" target-height="24.400024" target-width="48.600002" target-x="59.3" target-y="590.1"></path><path d="M 60.20 621.80 L 92.90 646.40 L 115.90 618.70" fill="none" group-id="1,13,60" id="路径_272" node-id="20" stroke="#004c0e" stroke-linecap="butt" stroke-width="2.000237" target-height="27.700012" target-width="55.7" target-x="60.2" target-y="618.7"></path><path d="M 69.00 654.60 L 98.20 678.10 L 122.80 646.10" fill="none" group-id="1,13,61" id="路径_273" node-id="21" stroke="#004c0e" stroke-linecap="butt" stroke-width="2.000237" target-height="32" target-width="53.800003" target-x="69" target-y="646.1"></path><path d="M 81.00 687.10 L 102.50 704.50 L 123.40 688.50" fill="none" group-id="1,13,62" id="路径_274" node-id="22" stroke="#004c0e" stroke-linecap="butt" stroke-width="2.000237" target-height="17.400024" target-width="42.4" target-x="81" target-y="687.1"></path><path d="M 242.20 604.00 L 244.10 605.50 L 245.70 607.20 L 246.90 609.10 L 247.70 611.50 L 248.30 614.70 L 248.40 618.50 L 248.00 622.90 L 245.80 632.00 L 241.00 644.80 L 233.20 660.80 L 224.20 676.20 L 215.20 689.70 L 208.00 699.10 L 200.50 706.90 L 194.30 712.40 L 187.80 717.50 L 181.00 722.20 L 174.50 726.40 L 162.20 732.80 L 156.70 735.00 L 152.60 736.20 L 149.90 736.50 L 148.20 736.30 L 147.20 735.80 L 146.30 734.60 L 145.70 732.60 L 145.50 729.10 L 145.80 725.70 L 147.40 715.90 L 149.50 707.70 L 152.60 697.90 L 156.40 687.90 L 164.50 669.50 L 172.60 654.40 L 178.30 645.10 L 184.00 636.70 L 189.80 629.10 L 199.20 618.70 L 208.10 610.80 L 212.90 607.40 L 217.40 604.90 L 221.80 603.00 L 226.00 601.80 L 229.50 601.20 L 232.80 601.20 L 236.00 601.70 L 239.10 602.60 L 242.20 604.00 Z" fill="#076e38" fill-rule="nonzero" group-id="1,14" id="路径_268-2" node-id="24" stroke="none" target-height="135.29999" target-width="102.899994" target-x="145.5" target-y="601.2"></path><path d="M 238.90 608.00 L 218.00 636.60 L 144.10 740.30" fill="none" group-id="1,14,63" id="路径_269-2" node-id="25" stroke="#004c0e" stroke-linecap="butt" stroke-width="2" target-height="132.29999" target-width="94.79999" target-x="144.1" target-y="608"></path><path d="M 225.50 606.00 L 226.60 624.30 L 245.90 623.60" fill="none" group-id="1,14,64" id="路径_270-2" node-id="26" stroke="#004c0e" stroke-linecap="butt" stroke-width="2" target-height="18.299988" target-width="20.399994" target-x="225.5" target-y="606"></path><path d="M 209.00 614.10 L 211.40 646.10 L 237.20 644.80" fill="none" group-id="1,14,65" id="路径_271-2" node-id="27" stroke="#004c0e" stroke-linecap="butt" stroke-width="2" target-height="32" target-width="28.199997" target-x="209" target-y="614.1"></path><path d="M 190.30 633.90 L 195.30 668.60 L 225.90 665.70" fill="none" group-id="1,14,66" id="路径_272-2" node-id="28" stroke="#004c0e" stroke-linecap="butt" stroke-width="2" target-height="34.69995" target-width="35.59999" target-x="190.3" target-y="633.9"></path><path d="M 175.80 659.10 L 179.30 690.90 L 213.50 686.40" fill="none" group-id="1,14,67" id="路径_273-2" node-id="29" stroke="#004c0e" stroke-linecap="butt" stroke-width="2" target-height="31.800049" target-width="37.699997" target-x="175.8" target-y="659.1"></path><path d="M 163.40 686.00 L 165.90 709.50 L 188.20 712.40" fill="none" group-id="1,14,68" id="路径_274-2" node-id="30" stroke="#004c0e" stroke-linecap="butt" stroke-width="2" target-height="26.400024" target-width="24.800003" target-x="163.4" target-y="686"></path><path d="M 167.90 558.20 L 171.20 558.60 L 174.20 559.40 L 177.00 560.70 L 179.60 562.50 L 181.90 564.70 L 186.00 570.40 L 187.80 574.00 L 189.80 578.90 L 191.50 584.50 L 193.00 590.70 L 195.00 603.50 L 196.30 620.90 L 196.10 641.80 L 194.70 660.80 L 192.60 674.50 L 191.10 680.50 L 189.10 686.70 L 184.10 698.90 L 176.30 713.60 L 171.30 721.60 L 166.10 729.10 L 161.10 735.30 L 157.60 739.10 L 151.90 744.30 L 149.00 746.20 L 146.80 747.00 L 145.20 747.20 L 143.80 746.70 L 142.30 745.70 L 140.60 744.00 L 138.60 741.30 L 136.50 737.70 L 134.20 732.90 L 129.60 720.70 L 125.60 705.60 L 122.40 688.80 L 120.20 669.90 L 119.40 649.90 L 119.60 639.70 L 120.30 630.10 L 121.40 620.90 L 123.00 611.80 L 124.90 603.40 L 127.30 595.70 L 131.80 584.80 L 137.00 575.90 L 140.20 571.80 L 143.50 568.30 L 146.90 565.40 L 150.60 562.90 L 154.50 560.90 L 158.70 559.50 L 163.10 558.60 L 167.90 558.20 Z" fill="#0c8c4d" fill-rule="nonzero" group-id="1,15,69" id="路径_268-3" node-id="32" stroke="none" target-height="189" target-width="76.9" target-x="119.4" target-y="558.2"></path><path d="M 166.60 564.20 L 161.40 605.40 L 144.50 753.50" fill="none" group-id="1,15,70" id="路径_269-3" node-id="33" stroke="#004c0e" stroke-linecap="butt" stroke-width="2" target-height="189.29999" target-width="22.100006" target-x="144.5" target-y="564.2"></path><path d="M 149.30 569.90 L 163.10 587.90 L 185.80 575.90" fill="none" group-id="1,15,71" id="路径_270-3" node-id="34" stroke="#004c0e" stroke-linecap="butt" stroke-width="2" target-height="18" target-width="36.5" target-x="149.3" target-y="569.9"></path><path d="M 135.10 587.90 L 160.00 618.80 L 189.90 602.40" fill="none" group-id="1,15,72" id="路径_271-3" node-id="35" stroke="#004c0e" stroke-linecap="butt" stroke-width="2" target-height="30.899963" target-width="54.799988" target-x="135.1" target-y="587.9"></path><path d="M 126.40 618.80 L 156.30 651.00 L 190.90 630.20" fill="none" group-id="1,15,73" id="路径_272-3" node-id="36" stroke="#004c0e" stroke-linecap="butt" stroke-width="2" target-height="32.200012" target-width="64.49999" target-x="126.4" target-y="618.8"></path><path d="M 126.40 652.70 L 152.60 682.90 L 190.40 658.40" fill="none" group-id="1,15,74" id="路径_273-3" node-id="37" stroke="#004c0e" stroke-linecap="butt" stroke-width="2" target-height="30.200012" target-width="63.999992" target-x="126.4" target-y="652.7"></path><path d="M 130.20 687.20 L 149.40 709.60 L 178.10 699.50" fill="none" group-id="1,15,75" id="路径_274-3" node-id="38" stroke="#004c0e" stroke-linecap="butt" stroke-width="2" target-height="22.399963" target-width="47.90001" target-x="130.2" target-y="687.2"></path><path d="M 27.10 614.40 L 29.20 612.70 L 31.30 611.50 L 33.60 610.70 L 36.10 610.20 L 39.50 610.30 L 43.10 610.80 L 47.10 612.10 L 55.10 615.90 L 59.30 618.50 L 65.60 622.90 L 71.90 628.10 L 78.10 633.60 L 89.70 645.40 L 99.60 656.80 L 106.00 665.60 L 110.90 674.50 L 114.00 681.60 L 116.60 689.10 L 118.80 696.60 L 120.50 703.90 L 121.70 711.10 L 122.40 717.30 L 122.60 723.20 L 122.30 727.50 L 121.80 730.20 L 121.00 731.90 L 120.20 732.90 L 118.70 733.50 L 116.50 733.70 L 113.20 733.30 L 110.00 732.40 L 101.30 729.00 L 94.20 725.40 L 85.90 720.60 L 77.60 715.00 L 68.70 708.40 L 62.90 703.60 L 51.30 692.80 L 44.40 685.50 L 38.30 678.30 L 33.00 671.10 L 29.40 665.40 L 26.30 660.00 L 23.80 654.70 L 21.90 649.70 L 20.30 644.30 L 19.40 639.30 L 19.10 634.60 L 19.40 630.20 L 20.10 626.70 L 21.20 623.40 L 22.70 620.20 L 24.70 617.30 L 27.10 614.40 Z" fill="#0c8c4d" fill-rule="nonzero" group-id="1,16" id="路径_268-4" node-id="40" stroke="none" target-height="123.5" target-width="103.5" target-x="19.1" target-y="610.2"></path><path d="M 29.80 618.50 L 54.00 649.50 L 123.30 736.80" fill="none" group-id="1,16,76" id="路径_269-4" node-id="41" stroke="#004c0e" stroke-linecap="butt" stroke-width="2" target-height="118.29999" target-width="93.5" target-x="29.8" target-y="618.5"></path><path d="M 23.20 631.40 L 41.10 633.70 L 47.10 614.20" fill="none" group-id="1,16,77" id="路径_270-4" node-id="42" stroke="#004c0e" stroke-linecap="butt" stroke-width="2" target-height="19.5" target-width="23.899998" target-x="23.2" target-y="614.2"></path><path d="M 25.40 649.40 L 56.60 652.70 L 64.20 626.80" fill="none" group-id="1,16,78" id="路径_271-4" node-id="43" stroke="#004c0e" stroke-linecap="butt" stroke-width="2" target-height="25.900024" target-width="38.799995" target-x="25.4" target-y="626.8"></path><path d="M 37.80 671.50 L 72.50 672.80 L 80.30 641.80" fill="none" group-id="1,16,79" id="路径_272-4" node-id="44" stroke="#004c0e" stroke-linecap="butt" stroke-width="2" target-height="31" target-width="42.500004" target-x="37.8" target-y="641.8"></path><path d="M 56.80 690.50 L 88.40 692.80 L 95.80 657.90" fill="none" group-id="1,16,80" id="路径_273-4" node-id="45" stroke="#004c0e" stroke-linecap="butt" stroke-width="2" target-height="34.899963" target-width="39.000004" target-x="56.8" target-y="657.9"></path><path d="M 78.20 707.70 L 101.50 709.50 L 111.90 687.70" fill="none" group-id="1,16,81" id="路径_274-4" node-id="46" stroke="#004c0e" stroke-linecap="butt" stroke-width="2" target-height="21.799988" target-width="33.700005" target-x="78.2" target-y="687.7"></path><path d="M 86.70 730.70 L 100.50 854.00 L 185.80 854.00 L 196.20 730.70 Z" fill="#e4f1ff" fill-rule="nonzero" group-id="1,17,82" id="路径_267" node-id="48" stroke="none" target-height="123.29999" target-width="109.5" target-x="86.7" target-y="730.7"></path><path d="M 81.40 719.20 L 203.60 719.20 L 203.60 734.60 L 81.40 734.60 Z" fill="#ffffff" fill-rule="nonzero" group-id="1,17" id="矩形_96" node-id="49" stroke="none" target-height="15.399963" target-width="122.200005" target-x="81.4" target-y="719.2"></path><path d="M 228.20 296.20 L 118.20 296.20 L 116.30 295.90 L 114.70 295.20 L 113.20 294.10 L 112.10 292.70 L 111.40 291.10 L 111.20 289.20 L 111.20 259.10 L 111.40 257.20 L 112.10 255.50 L 113.20 254.10 L 114.70 253.00 L 116.30 252.30 L 118.20 252.10 L 249.00 252.10 L 250.80 252.30 L 252.50 253.00 L 253.90 254.10 L 255.00 255.50 L 255.70 257.20 L 256.00 259.10 L 256.00 289.20 L 255.70 291.10 L 255.00 292.70 L 253.90 294.10 L 252.50 295.20 L 250.80 295.90 L 249.00 296.20 L 242.10 296.20 L 246.40 313.20 Z" fill="#e6f4fe" fill-rule="nonzero" group-id="2" id="联合_9" node-id="51" stroke="none" target-height="61.100006" target-width="144.8" target-x="111.2" target-y="252.1"></path><path d="M 147.10 274.10 L 146.80 276.20 L 146.10 278.00 L 144.90 279.60 L 143.30 280.80 L 141.50 281.50 L 139.40 281.80 L 137.40 281.50 L 135.50 280.80 L 134.00 279.60 L 132.80 278.00 L 132.00 276.20 L 131.70 274.10 L 132.00 272.10 L 132.80 270.20 L 134.00 268.70 L 135.50 267.50 L 137.40 266.70 L 139.40 266.40 L 141.50 266.70 L 143.30 267.50 L 144.90 268.70 L 146.10 270.20 L 146.80 272.10 L 147.10 274.10 Z" fill="#95c1e3" fill-rule="nonzero" group-id="2,18" id="椭圆_80" node-id="52" stroke="none" target-height="15.399994" target-width="15.400009" target-x="131.7" target-y="266.4"></path><path d="M 175.90 274.10 L 175.60 276.20 L 174.80 278.00 L 173.60 279.60 L 172.10 280.80 L 170.20 281.50 L 168.20 281.80 L 166.10 281.50 L 164.30 280.80 L 162.70 279.60 L 161.50 278.00 L 160.80 276.20 L 160.50 274.10 L 160.80 272.10 L 161.50 270.20 L 162.70 268.70 L 164.30 267.50 L 166.10 266.70 L 168.20 266.40 L 170.20 266.70 L 172.10 267.50 L 173.60 268.70 L 174.80 270.20 L 175.60 272.10 L 175.90 274.10 Z" fill="#95c1e3" fill-rule="nonzero" group-id="2,19" id="椭圆_81" node-id="53" stroke="none" target-height="15.399994" target-width="15.399994" target-x="160.5" target-y="266.4"></path><path d="M 200.50 274.10 L 200.20 276.20 L 199.50 278.00 L 198.30 279.60 L 196.70 280.80 L 194.90 281.50 L 192.80 281.80 L 190.80 281.50 L 188.90 280.80 L 187.40 279.60 L 186.20 278.00 L 185.40 276.20 L 185.10 274.10 L 185.40 272.10 L 186.20 270.20 L 187.40 268.70 L 188.90 267.50 L 190.80 266.70 L 192.80 266.40 L 194.90 266.70 L 196.70 267.50 L 198.30 268.70 L 199.50 270.20 L 200.20 272.10 L 200.50 274.10 Z" fill="#95c1e3" fill-rule="nonzero" group-id="2,20" id="椭圆_82" node-id="54" stroke="none" target-height="15.399994" target-width="15.399994" target-x="185.1" target-y="266.4"></path><path d="M 914.00 415.20 L 879.00 415.20 L 877.10 415.00 L 875.40 414.30 L 874.00 413.20 L 872.90 411.80 L 872.20 410.10 L 872.00 408.20 L 872.00 383.30 L 872.20 381.40 L 872.90 379.80 L 874.00 378.30 L 875.40 377.30 L 877.10 376.60 L 879.00 376.30 L 992.70 376.30 L 994.60 376.60 L 996.20 377.30 L 997.60 378.30 L 998.70 379.80 L 999.40 381.40 L 999.70 383.30 L 999.70 408.20 L 999.40 410.10 L 998.70 411.80 L 997.60 413.20 L 996.20 414.30 L 994.60 415.00 L 992.70 415.20 L 925.00 415.20 L 925.20 415.50 L 912.50 431.70 Z" fill="#e6f4fe" fill-rule="nonzero" group-id="3" id="联合_9-2" node-id="56" stroke="none" target-height="55.400024" target-width="127.70001" target-x="872" target-y="376.3"></path><path d="M 903.80 395.80 L 903.60 397.70 L 902.90 399.40 L 901.90 400.90 L 900.50 402.00 L 898.90 402.70 L 897.10 403.00 L 895.40 402.70 L 893.80 402.00 L 892.40 400.90 L 891.40 399.40 L 890.70 397.70 L 890.50 395.80 L 890.70 393.90 L 891.40 392.20 L 892.40 390.70 L 893.80 389.60 L 895.40 388.90 L 897.10 388.60 L 898.90 388.90 L 900.50 389.60 L 901.90 390.70 L 902.90 392.20 L 903.60 393.90 L 903.80 395.80 Z" fill="#95c1e3" fill-rule="nonzero" group-id="3,21" id="椭圆_80-2" node-id="57" stroke="none" target-height="14.399994" target-width="13.299988" target-x="890.5" target-y="388.6"></path><path d="M 929.50 395.80 L 929.20 397.70 L 928.50 399.40 L 927.40 400.90 L 925.90 402.00 L 924.20 402.70 L 922.30 403.00 L 920.40 402.70 L 918.70 402.00 L 917.20 400.90 L 916.10 399.40 L 915.40 397.70 L 915.10 395.80 L 915.40 393.90 L 916.10 392.20 L 917.20 390.70 L 918.70 389.60 L 920.40 388.90 L 922.30 388.60 L 924.20 388.90 L 925.90 389.60 L 927.40 390.70 L 928.50 392.20 L 929.20 393.90 L 929.50 395.80 Z" fill="#95c1e3" fill-rule="nonzero" group-id="3,22" id="椭圆_81-2" node-id="58" stroke="none" target-height="14.399994" target-width="14.400024" target-x="915.1" target-y="388.6"></path><path d="M 951.00 395.80 L 950.80 397.70 L 950.10 399.40 L 949.10 400.90 L 947.70 402.00 L 946.10 402.70 L 944.40 403.00 L 942.60 402.70 L 941.00 402.00 L 939.70 400.90 L 938.60 399.40 L 937.90 397.70 L 937.70 395.80 L 937.90 393.90 L 938.60 392.20 L 939.70 390.70 L 941.00 389.60 L 942.60 388.90 L 944.40 388.60 L 946.10 388.90 L 947.70 389.60 L 949.10 390.70 L 950.10 392.20 L 950.80 393.90 L 951.00 395.80 Z" fill="#95c1e3" fill-rule="nonzero" group-id="3,23" id="椭圆_82-2" node-id="59" stroke="none" target-height="14.399994" target-width="13.299988" target-x="937.7" target-y="388.6"></path><path d="M 346.60 301.90 L 346.60 254.40 L 346.80 248.60 L 347.40 243.40 L 348.50 238.80 L 350.00 234.70 L 351.80 231.00 L 354.00 227.60 L 356.70 224.60 L 359.70 221.90 L 363.20 219.70 L 367.00 217.90 L 371.40 216.40 L 376.30 215.40 L 431.10 206.10 L 605.60 175.50 L 615.40 175.00 L 622.60 175.80 L 626.30 176.70 L 629.80 178.00 L 633.10 179.80 L 636.30 182.10 L 640.30 186.50 L 643.50 192.70 L 644.70 196.10 L 645.50 200.10 L 646.00 204.70 L 646.20 210.10 L 648.30 721.90 L 648.20 733.00 L 647.60 742.30 L 646.70 746.80 L 645.20 751.20 L 643.90 754.00 L 642.10 756.60 L 639.90 759.30 L 637.40 761.60 L 634.20 763.80 L 630.20 766.00 L 626.00 767.70 L 620.90 769.40 L 614.70 770.90 L 580.40 777.40 L 395.50 811.40 L 386.50 812.20 L 381.20 812.20 L 375.80 811.70 L 370.50 810.50 L 367.10 809.30 L 363.90 807.70 L 361.00 805.60 L 357.30 801.80 L 354.60 796.50 L 353.80 793.10 L 352.20 775.30 L 350.20 728.80 L 349.20 688.20 L 348.50 641.90 L 347.40 540.40 L 346.80 440.30 L 346.60 301.90 Z" fill="#2e2e2e" fill-rule="nonzero" group-id="4,24" id="路径_276" node-id="61" stroke="none" target-height="637.2" target-width="301.69998" target-x="346.6" target-y="175"></path><path d="M 360.60 312.20 L 360.60 256.90 L 360.80 251.60 L 361.40 247.50 L 362.30 244.20 L 363.60 241.10 L 365.30 238.60 L 367.30 236.60 L 369.70 235.00 L 372.40 233.70 L 375.70 232.50 L 380.90 231.30 L 414.50 225.30 L 464.60 215.70 L 569.70 195.50 L 601.90 188.90 L 608.60 188.50 L 613.90 189.30 L 616.50 190.30 L 618.90 191.70 L 621.20 193.60 L 623.10 196.00 L 624.90 199.10 L 626.50 203.10 L 627.50 207.30 L 628.10 212.60 L 628.30 219.30 L 630.10 710.60 L 630.10 721.30 L 629.50 730.10 L 628.70 734.40 L 627.40 738.50 L 626.20 741.20 L 622.60 746.20 L 620.30 748.40 L 617.50 750.50 L 613.90 752.50 L 610.20 754.20 L 605.60 755.80 L 600.10 757.20 L 567.60 763.70 L 390.00 798.10 L 385.50 798.30 L 382.70 797.90 L 379.50 796.80 L 377.50 795.60 L 375.40 794.00 L 373.20 791.70 L 371.40 789.20 L 369.50 785.80 L 367.80 781.50 L 367.10 777.90 L 366.20 769.20 L 364.80 744.20 L 363.70 708.90 L 362.80 665.70 L 361.60 564.90 L 360.90 461.00 L 360.60 312.20 Z" fill="#e5f2ff" fill-rule="nonzero" group-id="4,25" id="路径_277" node-id="62" stroke="none" target-height="609.8" target-width="269.49997" target-x="360.6" target-y="188.5"></path><path d="M 438.80 231.70 L 520.50 217.60 L 531.50 215.90 L 534.60 215.80 L 537.20 216.20 L 539.60 217.00 L 541.70 218.30 L 543.40 219.90 L 544.70 221.70 L 545.60 223.80 L 546.10 225.90 L 546.10 228.10 L 545.70 230.20 L 544.70 232.20 L 543.10 234.20 L 541.10 235.80 L 538.40 237.10 L 534.90 238.20 L 509.80 242.70 L 475.40 248.20 L 437.40 253.80 L 434.80 253.80 L 432.60 253.30 L 430.70 252.40 L 429.10 251.10 L 427.90 249.50 L 427.00 247.60 L 426.50 245.60 L 426.30 243.50 L 426.70 241.30 L 427.40 239.20 L 428.60 237.20 L 430.40 235.30 L 432.50 233.80 L 435.30 232.60 L 438.80 231.70 Z" fill="#ffffff" fill-rule="nonzero" group-id="4,26" id="路径_278" node-id="63" stroke="none" target-height="38" target-width="119.79999" target-x="426.3" target-y="215.8"></path><path d="M 436.60 328.60 L 435.60 324.40 L 435.40 321.10 L 435.70 316.90 L 436.30 312.60 L 437.70 308.10 L 439.00 305.30 L 440.60 302.60 L 442.70 300.10 L 445.10 298.00 L 448.10 296.20 L 451.70 294.80 L 457.60 293.80 L 465.60 294.30 L 471.50 293.80 L 476.20 293.70 L 480.00 294.10 L 483.70 294.80 L 489.00 296.90 L 492.20 298.90 L 494.60 300.90 L 496.20 302.80 L 498.30 306.20 L 502.30 315.00 L 504.20 320.30 L 507.50 332.00 L 510.00 343.40 L 511.80 348.20 L 513.90 352.50 L 516.50 356.70 L 519.30 360.40 L 522.40 363.70 L 528.90 369.50 L 535.40 373.70 L 544.40 377.60 L 570.40 387.10 L 574.80 389.10 L 578.20 391.10 L 582.70 394.70 L 586.90 398.70 L 590.60 403.00 L 593.90 407.80 L 508.80 478.10 L 436.60 381.60 L 436.60 371.20 L 434.40 367.50 L 433.20 364.30 L 432.20 360.60 L 431.30 352.30 L 432.00 343.80 L 433.00 339.40 L 434.40 334.30 L 436.60 328.60 Z" fill="#010000" fill-rule="nonzero" group-id="5,27" id="路径_279" node-id="65" stroke="none" target-height="184.4" target-width="162.60004" target-x="431.3" target-y="293.7"></path><path d="M 451.80 354.70 L 450.50 365.60 L 448.20 373.70 L 446.50 378.00 L 444.30 382.10 L 439.10 389.40 L 438.20 391.10 L 438.40 392.50 L 440.20 392.60 L 441.80 392.10 L 476.70 376.30 L 475.90 340.10 Z" fill="#ffd6d1" fill-rule="nonzero" group-id="5,28" id="路径_280" node-id="66" stroke="none" target-height="52.5" target-width="38.5" target-x="438.2" target-y="340.1"></path><path d="M 468.30 309.70 L 466.10 309.60 L 460.90 310.30 L 454.10 312.00 L 450.70 313.40 L 447.40 315.20 L 443.60 318.30 L 441.00 322.20 L 439.40 326.90 L 438.90 330.70 L 438.90 338.60 L 440.60 348.20 L 441.30 350.40 L 442.30 352.30 L 444.80 354.70 L 446.60 355.90 L 448.50 356.90 L 450.70 357.50 L 453.10 357.70 L 455.70 357.20 L 459.30 355.90 L 463.20 354.00 L 467.00 351.60 L 470.50 349.00 L 473.60 346.00 L 475.90 343.10 L 478.60 342.70 L 481.70 340.80 L 483.10 339.30 L 484.20 337.40 L 484.80 335.30 L 484.90 332.60 L 484.50 330.90 L 483.90 329.70 L 483.00 328.90 L 481.30 328.20 L 479.50 328.00 L 477.60 328.40 L 476.10 329.00 L 475.00 329.90 L 474.60 330.60 L 473.60 330.30 L 472.60 329.10 L 471.40 326.90 L 470.00 322.70 L 468.80 315.30 L 468.30 309.70 Z" fill="#f9d2d4" fill-rule="nonzero" group-id="5,29" id="路径_281" node-id="67" stroke="none" target-height="48.100006" target-width="46" target-x="438.9" target-y="309.6"></path><path d="M 403.00 382.30 L 409.90 379.30 L 417.00 376.80 L 424.20 374.70 L 431.50 372.90 L 438.90 371.60 L 446.30 370.60 L 442.70 372.10 L 438.40 374.80 L 437.00 376.40 L 436.10 377.80 L 435.70 379.20 L 435.70 380.70 L 436.50 383.40 L 438.90 386.70 L 441.20 388.50 L 444.90 388.50 L 451.80 387.50 L 460.20 385.70 L 468.40 383.30 L 472.10 381.90 L 474.80 380.60 L 477.20 378.60 L 478.20 372.70 L 481.30 372.00 L 485.60 372.20 L 488.10 373.10 L 491.00 375.50 L 496.50 383.40 L 498.00 385.00 L 500.30 386.80 L 502.50 389.30 L 504.60 393.90 L 505.30 396.90 L 505.50 400.80 L 503.70 422.80 L 499.80 458.20 L 495.50 489.00 L 493.70 497.00 L 492.90 498.60 L 491.50 500.20 L 489.30 501.80 L 485.60 503.70 L 480.70 505.40 L 475.40 506.90 L 463.40 509.00 L 451.40 510.00 L 440.90 509.90 L 422.90 507.20 L 409.60 504.40 L 405.40 503.10 L 397.80 499.40 L 403.00 382.30 Z" fill="#eb3235" fill-rule="nonzero" group-id="6,30" id="路径_282" node-id="69" stroke="none" target-height="139.4" target-width="107.70001" target-x="397.8" target-y="370.6"></path><path d="M 412.50 395.70 L 406.20 412.80 L 402.70 424.40 L 402.20 428.40 L 402.80 429.70 L 403.50 429.80 L 404.60 429.30 L 407.60 426.70 L 414.00 395.70 Z" fill="#b62a20" fill-rule="nonzero" group-id="6,31" id="路径_292" node-id="70" stroke="none" target-height="34.099976" target-width="11.799988" target-x="402.2" target-y="395.7"></path><path d="M 295.30 338.60 L 292.40 337.40 L 290.50 336.00 L 289.00 334.40 L 286.80 330.50 L 286.20 326.10 L 287.00 321.60 L 288.00 319.30 L 290.70 316.00 L 294.30 313.60 L 291.70 311.10 L 290.80 309.60 L 290.00 307.10 L 289.70 304.50 L 290.40 301.10 L 292.30 297.80 L 293.60 296.50 L 296.70 294.60 L 300.20 293.90 L 302.00 294.00 L 305.50 295.20 L 307.80 297.00 L 308.30 294.90 L 309.20 293.00 L 311.40 290.20 L 314.40 288.40 L 317.70 287.70 L 321.10 288.20 L 322.80 289.00 L 324.50 290.30 L 325.90 291.90 L 326.90 293.80 L 327.40 295.90 L 328.80 295.20 L 331.70 294.40 L 334.70 294.80 L 336.20 295.50 L 338.00 296.90 L 339.20 298.70 L 340.00 300.70 L 340.20 302.80 L 339.90 305.00 L 339.00 307.00 L 337.80 308.60 L 336.40 309.90 L 334.70 310.80 L 337.20 312.60 L 338.40 314.40 L 339.20 316.40 L 339.40 318.50 L 339.10 320.70 L 338.20 322.80 L 337.10 324.30 L 334.20 326.40 L 332.40 327.00 L 333.80 328.50 L 334.80 330.20 L 335.30 332.10 L 335.40 334.10 L 335.10 336.00 L 334.20 337.90 L 332.80 339.80 L 330.90 341.20 L 328.80 342.10 L 326.40 342.30 L 322.80 356.10 L 294.20 351.70 Z" fill="#05753b" fill-rule="nonzero" group-id="6,32,83" id="联合_10" node-id="73" stroke="none" target-height="68.399994" target-width="54" target-x="286.2" target-y="287.7"></path><path d="M 311.50 317.40 L 299.60 350.90 L 310.80 349.20 Z" fill="#98f5aa" fill-rule="nonzero" group-id="6,32,83,125" id="路径_286" node-id="74" stroke="none" target-height="33.5" target-width="11.899994" target-x="299.6" target-y="317.4"></path><path d="M 333.00 356.30 L 332.70 359.00 L 332.00 361.50 L 330.90 363.80 L 329.40 365.90 L 327.70 367.60 L 325.60 369.10 L 323.30 370.20 L 320.80 370.90 L 318.10 371.10 L 315.40 370.90 L 312.90 370.20 L 310.60 369.10 L 308.50 367.60 L 306.70 365.90 L 305.20 363.80 L 304.10 361.50 L 303.40 359.00 L 303.20 356.30 L 303.40 353.50 L 304.10 351.10 L 305.20 348.70 L 306.70 346.70 L 308.50 344.90 L 310.60 343.40 L 312.90 342.30 L 315.40 341.60 L 318.10 341.40 L 320.80 341.60 L 323.30 342.30 L 325.60 343.40 L 327.70 344.90 L 329.40 346.70 L 330.90 348.70 L 332.00 351.10 L 332.70 353.50 L 333.00 356.30 Z" fill="#eb3d24" fill-rule="nonzero" group-id="6,32,83,126" id="椭圆_90" node-id="75" stroke="none" target-height="29.700012" target-width="29.799988" target-x="303.2" target-y="341.4"></path><path d="M 276.90 338.10 L 283.30 373.10 L 292.20 366.00 Z" fill="#96f39b" fill-rule="nonzero" group-id="6,32,84,127" id="路径_286-2" node-id="77" stroke="none" target-height="35" target-width="15.300018" target-x="276.9" target-y="338.1"></path><path d="M 311.40 358.30 L 311.10 361.00 L 310.50 363.50 L 309.40 365.80 L 307.90 367.90 L 306.10 369.70 L 304.00 371.20 L 301.70 372.30 L 299.20 372.90 L 296.50 373.20 L 293.80 372.90 L 291.30 372.30 L 289.00 371.20 L 286.90 369.70 L 285.10 367.90 L 283.70 365.80 L 282.60 363.50 L 281.90 361.00 L 281.60 358.30 L 281.90 355.60 L 282.60 353.10 L 283.70 350.80 L 285.10 348.70 L 286.90 346.90 L 289.00 345.50 L 291.30 344.40 L 293.80 343.70 L 296.50 343.40 L 299.20 343.70 L 301.70 344.40 L 304.00 345.50 L 306.10 346.90 L 307.90 348.70 L 309.40 350.80 L 310.50 353.10 L 311.10 355.60 L 311.40 358.30 Z" fill="#f4563c" fill-rule="nonzero" group-id="6,32,84,128" id="椭圆_89" node-id="78" stroke="none" target-height="29.800018" target-width="29.799988" target-x="281.6" target-y="343.4"></path><path d="M 382.80 300.30 L 386.60 300.90 L 390.70 303.10 L 394.60 307.20 L 396.20 309.70 L 397.70 312.90 L 399.10 316.80 L 400.00 320.70 L 400.50 325.50 L 400.70 331.00 L 400.70 364.60 L 400.40 368.70 L 399.60 372.40 L 398.30 375.80 L 396.50 379.00 L 394.30 381.60 L 391.80 383.80 L 389.70 385.10 L 385.20 386.60 L 382.80 386.80 L 378.00 386.00 L 373.70 383.80 L 371.20 381.60 L 369.10 379.00 L 367.20 375.80 L 365.90 372.40 L 365.10 368.70 L 364.80 364.60 L 364.80 324.60 L 365.30 320.10 L 366.10 316.40 L 367.40 312.70 L 368.90 309.70 L 370.60 307.30 L 372.60 305.00 L 376.70 302.10 L 378.90 301.10 L 382.80 300.30 Z" fill="#ea975a" fill-rule="nonzero" group-id="6,32,85,129" id="路径_287" node-id="80" stroke="none" target-height="86.5" target-width="35.900024" target-x="364.8" target-y="300.3"></path><path d="M 368.90 327.20 L 369.70 327.50 L 371.70 327.30 L 379.70 325.80 L 382.50 325.50 L 385.90 325.90 L 388.50 327.00 L 389.20 326.90 L 389.80 325.90 L 389.20 323.80 L 388.10 322.10 L 386.10 320.40 L 384.60 319.60 L 380.40 318.90 L 377.10 319.20 L 374.50 320.00 L 372.20 321.20 L 370.60 322.60 L 368.80 325.30 L 368.60 326.50 L 368.90 327.20 Z" fill="#d87b3d" fill-rule="nonzero" group-id="6,32,85,130" id="路径_288" node-id="81" stroke="none" target-height="8.600006" target-width="21.199982" target-x="368.6" target-y="318.9"></path><path d="M 369.90 354.80 L 370.70 355.10 L 372.70 354.90 L 380.70 353.40 L 383.50 353.10 L 387.00 353.50 L 389.60 354.60 L 390.30 354.60 L 390.80 353.50 L 390.20 351.30 L 389.10 349.60 L 387.10 347.90 L 385.60 347.10 L 381.40 346.40 L 378.10 346.70 L 375.50 347.50 L 373.20 348.80 L 371.60 350.10 L 369.80 352.90 L 369.60 354.10 L 369.90 354.80 Z" fill="#d87b3d" fill-rule="nonzero" group-id="6,32,85,131" id="路径_289" node-id="82" stroke="none" target-height="8.700012" target-width="21.199982" target-x="369.6" target-y="346.4"></path><path d="M 348.90 300.30 L 352.70 300.80 L 354.80 301.60 L 358.80 304.00 L 360.70 305.90 L 362.40 307.90 L 363.90 310.50 L 365.20 313.60 L 366.10 316.80 L 366.60 320.60 L 366.80 352.20 L 366.50 355.40 L 365.70 358.40 L 364.40 361.20 L 362.60 363.70 L 360.50 365.90 L 357.90 367.70 L 355.20 369.00 L 352.20 369.80 L 348.90 370.10 L 345.60 369.80 L 342.60 369.00 L 339.80 367.70 L 337.30 365.90 L 335.10 363.70 L 333.40 361.20 L 332.00 358.40 L 331.20 355.40 L 330.90 352.20 L 330.90 319.90 L 331.40 316.30 L 332.20 313.30 L 333.50 310.40 L 335.00 307.90 L 338.70 304.20 L 342.80 301.70 L 346.00 300.70 L 348.90 300.30 Z" fill="#f7ad6d" fill-rule="nonzero" group-id="6,32,86,132" id="路径_287-2" node-id="84" stroke="none" target-height="69.80002" target-width="35.899994" target-x="330.9" target-y="300.3"></path><path d="M 336.10 323.10 L 336.90 323.30 L 338.80 323.20 L 346.80 321.70 L 349.60 321.40 L 353.10 321.80 L 355.70 322.90 L 356.40 322.80 L 356.90 321.80 L 356.40 319.70 L 355.20 318.00 L 353.30 316.30 L 351.70 315.50 L 347.50 314.80 L 344.20 315.10 L 341.60 315.90 L 339.40 317.10 L 337.80 318.50 L 335.90 321.20 L 335.80 322.40 L 336.10 323.10 Z" fill="#e69457" fill-rule="nonzero" group-id="6,32,86,133" id="路径_288-2" node-id="85" stroke="none" target-height="8.5" target-width="21.100006" target-x="335.8" target-y="314.8"></path><path d="M 336.10 345.70 L 338.80 345.80 L 349.60 344.40 L 352.30 344.60 L 355.70 345.60 L 356.40 345.50 L 356.80 345.20 L 356.90 344.40 L 356.40 343.00 L 355.20 341.70 L 351.70 339.80 L 347.50 339.20 L 344.40 339.40 L 342.00 340.00 L 338.30 341.70 L 336.30 343.60 L 335.80 344.60 L 336.10 345.70 Z" fill="#e69457" fill-rule="nonzero" group-id="6,32,86,134" id="路径_289-2" node-id="86" stroke="none" target-height="6.5999756" target-width="21.100006" target-x="335.8" target-y="339.2"></path><path d="M 271.10 366.60 L 268.10 509.00 L 268.30 510.50 L 269.20 512.40 L 270.30 513.30 L 271.70 513.90 L 273.90 514.20 L 389.20 515.10 L 391.80 514.20 L 393.30 513.20 L 394.90 511.60 L 396.30 509.40 L 397.60 506.20 L 398.50 500.80 L 402.80 378.00 L 395.70 373.50 L 388.30 369.60 L 380.60 366.20 L 372.60 363.40 L 364.50 361.30 L 356.20 359.70 L 350.00 359.10 L 335.20 358.90 L 319.10 359.90 L 295.80 362.60 L 271.10 366.60 Z" fill="#f6b208" fill-rule="nonzero" group-id="6,32,87" id="路径_284" node-id="87" stroke="none" target-height="156.19998" target-width="134.69998" target-x="268.1" target-y="358.9"></path><path d="M 323.10 444.00 L 322.00 454.00 L 321.40 463.70 L 321.50 474.00 L 322.10 478.90 L 322.90 483.00 L 323.80 485.50 L 324.90 487.40 L 326.10 488.80 L 327.40 489.40 L 332.50 490.30 L 337.50 490.40 L 344.20 490.00 L 359.30 488.30 L 376.40 485.60 L 393.60 482.40 L 421.80 476.10 L 429.50 473.90 L 461.70 463.50 L 472.80 459.40 L 477.80 457.20 L 481.80 455.20 L 486.20 452.40 L 490.20 449.40 L 493.70 446.20 L 499.10 440.10 L 500.80 437.70 L 502.00 435.40 L 502.30 434.10 L 504.40 414.90 L 504.60 405.70 L 504.30 401.30 L 503.00 395.20 L 501.00 391.90 L 498.50 389.60 L 495.90 387.80 L 493.20 386.50 L 487.60 385.10 L 481.10 385.10 L 475.10 386.40 L 465.60 389.90 L 453.40 395.30 L 441.00 401.70 L 423.50 412.40 L 408.00 421.10 L 399.30 425.20 L 389.90 429.00 L 383.50 431.10 L 376.90 432.80 L 354.40 436.90 L 338.70 440.20 L 323.10 444.00 Z" fill="#fe4848" fill-rule="nonzero" group-id="6,33" id="路径_290" node-id="88" stroke="none" target-height="105.29999" target-width="183.20001" target-x="321.4" target-y="385.1"></path><path d="M 440.10 371.30 L 437.10 374.70 L 436.30 376.40 L 436.00 378.30 L 436.20 381.90 L 437.10 386.20 L 438.40 389.90 L 439.20 391.30 L 440.10 392.00 L 443.70 392.10 L 450.40 391.10 L 458.60 389.50 L 474.10 385.80 L 484.20 385.50 L 499.30 386.30 L 501.00 383.50 L 501.80 379.90 L 501.10 376.70 L 498.90 374.30 L 495.10 372.30 L 492.00 371.50 L 482.70 369.80 L 477.80 369.30 L 475.50 369.70 L 475.80 372.40 L 475.60 374.00 L 475.00 375.60 L 473.90 377.10 L 465.90 377.70 L 459.50 379.10 L 451.80 382.00 L 442.20 387.40 L 442.90 384.30 L 444.00 381.70 L 448.70 373.80 L 449.40 372.20 L 449.70 370.70 L 447.20 370.20 L 444.00 370.50 L 440.10 371.30 Z" fill="#fc4647" fill-rule="nonzero" group-id="6,34" id="路径_291" node-id="89" stroke="none" target-height="22.800018" target-width="65.79999" target-x="436" target-y="369.3"></path><path d="M 323.50 448.20 L 303.50 435.50 L 300.40 434.90 L 297.00 435.50 L 295.70 436.40 L 294.90 437.70 L 294.90 439.90 L 295.50 441.50 L 298.40 445.80 L 304.30 452.50 L 305.00 453.70 L 305.10 454.50 L 304.50 454.90 L 300.20 455.30 L 289.60 454.70 L 282.40 453.60 L 274.60 451.10 L 272.60 450.80 L 269.20 451.30 L 268.00 451.90 L 267.30 452.80 L 266.90 453.80 L 267.10 454.90 L 267.90 456.30 L 271.40 458.90 L 283.10 464.60 L 290.60 467.50 L 284.30 467.00 L 277.70 466.10 L 269.50 464.10 L 268.20 464.00 L 267.40 464.20 L 266.30 465.40 L 266.60 467.60 L 267.50 469.10 L 268.80 470.40 L 270.50 471.50 L 289.40 477.90 L 282.20 477.10 L 269.50 475.00 L 268.40 475.00 L 267.60 475.50 L 267.10 476.30 L 267.20 477.50 L 268.20 478.90 L 269.50 479.80 L 287.60 486.80 L 289.30 487.70 L 287.90 488.50 L 284.40 489.00 L 282.30 488.90 L 275.50 487.60 L 274.20 488.00 L 274.30 489.20 L 276.90 491.60 L 281.20 494.00 L 283.80 494.80 L 289.30 495.30 L 293.30 495.30 L 303.20 494.50 L 313.40 492.50 L 317.90 490.90 L 320.70 489.60 L 323.00 488.10 L 324.70 486.40 L 325.90 484.70 L 327.40 480.40 L 327.90 476.60 L 328.00 472.40 L 327.10 463.90 L 325.60 456.10 L 323.50 448.20 Z" fill="#fdcfce" fill-rule="nonzero" group-id="6,35" id="路径_283" node-id="90" stroke="none" target-height="60.399994" target-width="61.700012" target-x="266.3" target-y="434.9"></path><path d="M 264.20 796.70 L 254.30 802.00 L 248.10 804.80 L 235.70 806.40 L 226.80 808.70 L 222.50 810.30 L 218.70 812.30 L 216.40 814.00 L 214.70 815.80 L 213.40 817.80 L 211.10 823.20 L 209.70 828.30 L 208.90 832.90 L 208.60 836.60 L 208.80 839.80 L 210.00 845.30 L 212.10 848.60 L 213.80 850.20 L 216.90 852.30 L 224.60 855.90 L 232.70 858.20 L 238.50 858.90 L 256.20 858.40 L 291.20 856.70 L 339.30 853.80 L 340.70 853.40 L 344.00 851.60 L 345.80 850.20 L 347.80 848.00 L 349.90 844.30 L 350.80 841.90 L 350.80 840.60 L 350.10 839.00 L 348.40 836.80 L 345.10 833.70 L 334.60 826.00 L 321.10 817.60 L 299.60 805.50 L 274.70 792.60 Z" fill="#ffffff" fill-rule="nonzero" group-id="7,36" id="路径_301" node-id="92" stroke="none" target-height="66.30005" target-width="142.19998" target-x="208.6" target-y="792.6"></path><g clip-path="url(#clip-path)" group-id="7,37" id="蒙版组_16" node-id="93"><path d="M 244.40 804.80 L 248.40 806.00 L 254.40 808.50 L 257.70 810.50 L 260.90 813.00 L 264.00 816.10 L 267.50 821.20 L 268.80 824.30 L 269.80 827.50 L 270.40 831.20 L 270.60 835.40 L 331.40 832.80 L 320.40 804.30 L 273.90 789.00 Z" fill="#f3b508" fill-rule="nonzero" group-id="7,37,88" id="路径_302" node-id="94" stroke="none" target-height="46.400024" target-width="87" target-x="244.4" target-y="789"></path><path d="M 211.90 817.80 L 214.60 821.40 L 217.10 824.00 L 220.00 826.50 L 223.80 829.20 L 229.90 832.30 L 233.70 833.60 L 237.50 834.50 L 241.80 835.20 L 246.70 835.40 L 274.60 834.80 L 333.40 832.30" fill="none" group-id="7,37,89" id="路径_303" node-id="95" stroke="#b6b6b6" stroke-linecap="butt" stroke-width="2" target-height="17.600037" target-width="121.5" target-x="211.9" target-y="817.8"></path><path d="M 255.10 799.40 L 259.40 800.60 L 262.50 801.90 L 265.80 803.60 L 271.90 807.90 L 276.50 812.70 L 278.60 815.60 L 280.40 818.90 L 282.00 822.80" fill="none" group-id="7,37,90" id="路径_304" node-id="96" stroke="#ffffff" stroke-linecap="round" stroke-width="4" target-height="23.399963" target-width="26.899994" target-x="255.1" target-y="799.4"></path><path d="M 274.60 799.40 L 278.90 800.60 L 282.00 801.90 L 285.30 803.60 L 291.40 807.90 L 296.00 812.70 L 298.10 815.60 L 299.90 818.90 L 301.60 822.80" fill="none" group-id="7,37,91" id="路径_305" node-id="97" stroke="#ffffff" stroke-linecap="round" stroke-width="4" target-height="23.399963" target-width="27" target-x="274.6" target-y="799.4"></path></g><path d="M 390.10 491.30 L 380.60 502.10 L 366.00 520.10 L 355.70 534.60 L 351.00 542.00 L 346.80 549.40 L 339.50 564.80 L 333.80 575.50 L 312.70 613.20 L 304.80 628.20 L 294.50 649.20 L 284.70 672.00 L 280.30 683.80 L 276.30 696.00 L 272.70 708.40 L 267.30 730.30 L 264.20 745.70 L 262.20 758.70 L 260.70 770.80 L 259.40 788.50 L 259.40 798.50 L 265.50 798.60 L 275.80 800.40 L 282.40 802.30 L 291.80 806.20 L 297.10 809.00 L 302.40 812.30 L 308.30 816.40 L 332.50 834.90 L 343.90 842.50 L 350.90 845.80 L 353.90 846.70 L 358.10 847.00 L 361.40 845.80 L 363.60 843.40 L 365.60 838.50 L 366.80 832.60 L 368.60 815.70 L 370.40 782.30 L 372.10 757.30 L 373.50 744.50 L 375.30 731.80 L 378.60 715.30 L 384.20 695.60 L 395.90 659.10 L 411.10 615.60 L 422.60 584.40 L 428.60 598.30 L 435.40 612.90 L 444.30 630.20 L 454.80 648.40 L 460.60 657.30 L 466.50 665.70 L 474.90 675.90 L 508.40 710.30 L 538.00 742.30 L 560.80 767.30 L 618.50 761.60 L 616.00 682.50 L 607.20 677.30 L 592.80 667.30 L 583.60 660.10 L 570.80 649.00 L 556.70 635.10 L 549.60 627.30 L 542.30 618.60 L 535.40 609.60 L 528.50 599.80 L 521.70 589.10 L 515.30 578.10 L 509.90 568.00 L 505.40 558.60 L 497.90 540.40 L 492.80 524.50 L 489.70 511.30 L 488.20 502.30 L 487.40 495.50 L 487.10 489.40 L 487.30 482.20 Z" fill="#3655d8" fill-rule="nonzero" group-id="7,38" id="路径_293" node-id="98" stroke="none" target-height="364.8" target-width="359.1" target-x="259.4" target-y="482.2"></path><path d="M 418.30 557.90 L 405.60 630.20 L 423.40 584.10 Z" fill="#0c418c" fill-rule="nonzero" group-id="7,39" id="路径_300" node-id="99" stroke="none" target-height="72.29999" target-width="17.799988" target-x="405.6" target-y="557.9"></path><path d="M 501.10 422.80 L 520.50 448.50" fill="none" group-id="8,40,92" id="路径_295" node-id="102" stroke="#9c874c" stroke-linecap="butt" stroke-width="2" target-height="25.700012" target-width="19.399994" target-x="501.1" target-y="422.8"></path><path d="M 468.60 477.60 L 518.30 561.10 L 598.40 518.40 L 554.70 436.20 Z" fill="#f6b209" fill-rule="nonzero" group-id="8,40,93" id="路径_297" node-id="103" stroke="none" target-height="124.89996" target-width="129.80002" target-x="468.6" target-y="436.2"></path><path d="M 542.60 436.60 L 554.70 436.60 L 468.60 477.60 L 466.40 469.60 Z" fill="#dc8406" fill-rule="nonzero" group-id="8,40,94" id="路径_296" node-id="104" stroke="none" target-height="41" target-width="88.30002" target-x="466.4" target-y="436.6"></path><path d="M 481.90 457.10 L 494.50 475.50" fill="none" group-id="8,40,95" id="路径_298" node-id="105" stroke="#fab036" stroke-linecap="butt" stroke-width="2" target-height="18.399994" target-width="12.600006" target-x="481.9" target-y="457.1"></path><path d="M 460.80 390.50 L 465.10 388.20 L 472.10 385.70 L 476.60 384.70 L 483.10 384.20 L 490.10 384.90 L 493.80 386.00 L 497.60 387.60 L 501.10 389.60 L 504.80 392.30 L 508.60 395.90 L 515.00 403.00 L 521.10 410.70 L 526.90 418.50 L 537.10 433.60 L 549.10 453.90" fill="none" group-id="8,40,96" id="路径_294" node-id="106" stroke="#fab036" stroke-linecap="butt" stroke-width="2" target-height="69.69998" target-width="88.29999" target-x="460.8" target-y="384.2"></path><path d="M 553.70 455.30 L 553.40 457.00 L 552.50 458.20 L 551.20 459.10 L 549.60 459.40 L 548.00 459.10 L 546.70 458.20 L 545.80 457.00 L 545.50 455.30 L 545.80 453.70 L 546.70 452.40 L 548.00 451.60 L 549.60 451.20 L 551.20 451.60 L 552.50 452.40 L 553.40 453.70 L 553.70 455.30 Z" fill="#532c05" fill-rule="nonzero" group-id="8,40,97" id="椭圆_91" node-id="107" stroke="none" target-height="8.199982" target-width="8.200012" target-x="545.5" target-y="451.2"></path><path d="M 461.20 464.60 L 463.50 484.30 L 441.40 488.40 L 468.10 606.60 L 567.00 580.60 L 533.60 464.90 L 515.00 470.50 L 512.80 447.60 L 509.50 422.40 L 507.40 412.60 L 506.30 408.90 L 505.30 407.10 L 504.10 418.00 L 503.00 424.40 L 506.40 473.00 L 469.10 482.10 L 467.20 464.00 Z" fill="#ffffff" fill-rule="nonzero" group-id="8,41,98" id="路径_299" node-id="109" stroke="none" target-height="199.49997" target-width="125.600006" target-x="441.4" target-y="407.1"></path><path d="M 527.00 532.30 L 526.80 535.60 L 526.20 538.60 L 525.20 541.50 L 523.80 544.30 L 520.10 549.00 L 515.30 552.70 L 512.60 554.10 L 509.70 555.10 L 506.60 555.70 L 503.40 556.00 L 500.20 555.70 L 497.10 555.10 L 494.20 554.10 L 489.00 551.00 L 484.70 546.80 L 483.00 544.30 L 481.60 541.50 L 480.60 538.60 L 480.00 535.60 L 479.80 532.30 L 480.00 529.10 L 480.60 526.00 L 481.60 523.20 L 484.70 517.90 L 489.00 513.60 L 494.20 510.60 L 497.10 509.60 L 500.20 509.00 L 503.40 508.70 L 506.60 509.00 L 509.70 509.60 L 512.60 510.60 L 515.30 512.00 L 520.10 515.60 L 523.80 520.40 L 525.20 523.20 L 526.20 526.00 L 526.80 529.10 L 527.00 532.30 Z" fill="#d0d6df" fill-rule="nonzero" group-id="8,41,99" id="椭圆_92" node-id="110" stroke="none" target-height="47.299988" target-width="47.200012" target-x="479.8" target-y="508.7"></path><path d="M 617.20 672.00 L 616.90 854.30 L 733.60 854.30 L 733.90 675.40 Z" fill="#f1f4ff" fill-rule="nonzero" group-id="9,42" id="路径_307" node-id="112" stroke="none" target-height="182.29999" target-width="117" target-x="616.9" target-y="672"></path><path d="M 734.00 675.40 L 733.90 854.30 L 765.00 854.30 L 765.10 675.70 Z" fill="#cdddf7" fill-rule="nonzero" group-id="9,43" id="路径_308" node-id="113" stroke="none" target-height="178.89996" target-width="31.199951" target-x="733.9" target-y="675.4"></path><path d="M 653.20 756.20 L 703.40 756.20 L 703.40 857.60 L 653.20 857.60 Z" fill="#f7ad6d" fill-rule="nonzero" group-id="10,44,100" id="路径_315" node-id="116" stroke="none" target-height="101.39996" target-width="50.200012" target-x="653.2" target-y="756.2"></path><path d="M 703.40 756.20 L 743.90 756.20 L 743.90 857.60 L 703.40 857.60 Z" fill="#e8914e" fill-rule="nonzero" group-id="10,44,101" id="路径_316" node-id="117" stroke="none" target-height="101.39996" target-width="40.5" target-x="703.4" target-y="756.2"></path><path d="M 648.00 778.60 L 690.90 777.90 L 703.40 756.40 L 648.70 756.40 Z" fill="#fec194" fill-rule="nonzero" group-id="10,44,102" id="路径_317" node-id="118" stroke="none" target-height="22.199951" target-width="55.400024" target-x="648" target-y="756.4"></path><path d="M 715.90 777.90 L 755.70 777.90 L 743.50 755.80 L 704.40 755.80 Z" fill="#fec194" fill-rule="nonzero" group-id="10,44,103" id="路径_318" node-id="119" stroke="none" target-height="22.100037" target-width="51.299988" target-x="704.4" target-y="755.8"></path><path d="M 653.20 734.50 L 659.50 735.50 L 671.20 864.50 L 646.70 864.50 Z" fill="#f49609" fill-rule="nonzero" group-id="10,45,104" id="路径_310" node-id="121" stroke="none" target-height="130" target-width="24.5" target-x="646.7" target-y="734.5"></path><path d="M 583.30 734.50 L 567.50 861.20 L 646.60 864.30 L 653.20 734.50 Z" fill="#ffc903" fill-rule="nonzero" group-id="10,45,105" id="路径_309" node-id="122" stroke="none" target-height="129.79999" target-width="85.70001" target-x="567.5" target-y="734.5"></path><path d="M 655.10 735.70 L 659.00 854.20" fill="none" group-id="10,45,106" id="路径_311" node-id="123" stroke="#a45a01" stroke-linecap="butt" stroke-width="2" target-height="118.5" target-width="3.9000244" target-x="655.1" target-y="735.7"></path><path d="M 646.70 864.30 L 659.40 853.10 L 671.00 864.30" fill="none" group-id="10,45,107" id="路径_312" node-id="124" stroke="#a45a01" stroke-linecap="butt" stroke-width="2" target-height="11.200012" target-width="24.299988" target-x="646.7" target-y="853.1"></path><path d="M 603.10 752.10 L 599.90 752.10 L 599.90 729.50 L 600.20 726.20 L 601.20 723.10 L 602.70 720.30 L 604.70 717.90 L 607.20 715.80 L 610.00 714.30 L 613.20 713.30 L 616.40 713.00 L 619.50 713.40 L 622.60 714.30 L 625.40 715.80 L 627.90 717.90 L 630.00 720.40 L 631.50 723.20 L 632.40 726.20 L 632.80 729.50 L 632.80 752.10 L 629.50 752.10 L 629.30 729.60 L 628.70 726.90 L 627.70 724.30 L 626.40 722.00 L 624.80 720.00 L 623.00 718.40 L 620.90 717.20 L 618.70 716.50 L 616.30 716.20 L 613.90 716.50 L 611.70 717.20 L 609.70 718.40 L 607.80 720.00 L 606.30 722.00 L 604.90 724.30 L 604.00 726.90 L 603.30 729.60 L 603.10 752.10 Z" fill="#030000" fill-rule="nonzero" group-id="10,45,108" id="减去_5" node-id="125" stroke="none" target-height="39.099976" target-width="32.899963" target-x="599.9" target-y="713"></path><path d="M 607.10 751.50 L 606.90 753.10 L 605.40 755.50 L 603.00 757.00 L 601.40 757.20 L 598.60 756.40 L 596.60 754.40 L 596.00 753.10 L 595.80 751.50 L 596.60 748.70 L 598.60 746.70 L 601.40 745.90 L 603.00 746.10 L 605.40 747.60 L 606.90 750.00 L 607.10 751.50 Z" fill="#030000" fill-rule="nonzero" group-id="10,45,109" id="椭圆_93" node-id="126" stroke="none" target-height="11.299988" target-width="11.299988" target-x="595.8" target-y="745.9"></path><path d="M 636.90 751.50 L 636.60 753.10 L 635.20 755.50 L 632.80 757.00 L 631.20 757.20 L 628.40 756.40 L 626.30 754.40 L 625.80 753.10 L 625.60 751.50 L 626.30 748.70 L 628.40 746.70 L 631.20 745.90 L 632.80 746.10 L 635.20 747.60 L 636.60 750.00 L 636.90 751.50 Z" fill="#030000" fill-rule="nonzero" group-id="10,45,110" id="椭圆_94" node-id="127" stroke="none" target-height="11.299988" target-width="11.300049" target-x="625.6" target-y="745.9"></path><path d="M 763.50 433.60 L 761.60 439.80 L 757.80 448.80 L 753.10 457.00 L 747.10 464.50 L 746.80 465.70 L 746.90 466.70 L 748.70 468.40 L 750.40 469.20 L 757.10 470.70 L 765.30 471.40 L 779.30 471.40 L 781.70 471.30 L 792.10 454.80 L 777.20 433.40 Z" fill="#fbcbce" fill-rule="nonzero" group-id="11,46,111" id="路径_321" node-id="130" stroke="none" target-height="38" target-width="45.299988" target-x="746.8" target-y="433.4"></path><path d="M 822.10 414.30 L 820.50 428.40 L 818.40 441.30 L 818.30 442.40 L 819.00 444.90 L 818.70 446.30 L 817.90 447.40 L 816.70 448.30 L 813.00 449.80 L 809.20 454.90 L 807.40 456.90 L 802.60 460.70 L 799.90 462.00 L 798.10 462.60 L 794.10 462.70 L 792.20 462.00 L 790.30 460.80 L 788.40 459.00 L 785.80 455.70 L 781.30 447.70 L 779.50 443.60 L 776.00 434.10 L 773.00 420.70 L 795.60 409.10 L 813.00 409.10 Z" fill="#fed0d2" fill-rule="nonzero" group-id="11,46,112" id="路径_319" node-id="131" stroke="none" target-height="53.600006" target-width="49.099976" target-x="773" target-y="409.1"></path><path d="M 763.90 436.00 L 762.60 434.20 L 761.30 429.10 L 760.80 420.50 L 761.10 415.80 L 761.80 411.10 L 762.80 406.70 L 763.90 403.90 L 766.60 399.40 L 763.00 399.10 L 760.00 398.10 L 757.30 396.60 L 754.90 394.60 L 752.90 392.20 L 751.40 389.30 L 750.60 386.20 L 750.30 383.10 L 750.70 380.00 L 751.70 377.00 L 753.20 374.30 L 755.30 371.90 L 753.20 372.50 L 749.10 372.60 L 745.20 371.40 L 743.50 370.40 L 740.50 367.50 L 739.40 365.70 L 738.10 361.60 L 738.20 357.50 L 739.60 353.70 L 742.10 350.40 L 743.80 349.10 L 745.70 348.10 L 749.70 347.10 L 753.80 347.30 L 755.70 348.00 L 759.20 350.10 L 760.70 351.70 L 762.00 353.50 L 763.40 357.30 L 763.70 359.40 L 763.20 363.40 L 761.40 367.10 L 760.00 368.80 L 763.10 367.90 L 766.10 367.60 L 769.20 367.80 L 772.20 368.70 L 774.90 370.10 L 777.40 372.10 L 779.40 374.60 L 780.90 377.30 L 781.80 380.20 L 782.10 383.30 L 781.90 386.30 L 781.00 389.40 L 785.90 388.50 L 796.90 389.10 L 800.80 389.80 L 804.70 390.90 L 808.70 392.70 L 811.20 394.20 L 815.80 398.60 L 818.70 402.50 L 820.80 406.30 L 823.40 413.50 L 824.30 419.00 L 824.20 421.90 L 821.70 423.90 L 815.90 426.70 L 812.30 427.90 L 805.60 429.10 L 800.40 428.70 L 796.90 427.80 L 792.50 425.50 L 787.80 421.70 L 784.70 421.20 L 782.30 421.50 L 780.00 422.20 L 778.10 423.30 L 777.10 424.40 L 776.40 425.70 L 776.10 427.30 L 776.20 431.30 L 776.90 435.20 L 770.80 436.50 L 767.80 436.80 L 765.80 436.60 L 763.90 436.00 Z" fill="#251a5e" fill-rule="nonzero" group-id="11,46" id="联合_11" node-id="132" stroke="none" target-height="89.69998" target-width="86.20001" target-x="738.1" target-y="347.1"></path><path d="M 897.60 459.20 L 867.60 511.80 L 889.70 516.70 L 914.70 479.10 L 922.10 468.50 L 922.80 466.60 L 921.80 464.00 L 920.60 462.60 L 919.10 461.60 L 917.80 461.20 L 897.60 459.20 Z" fill="#4b494c" fill-rule="nonzero" group-id="11,47,113,135" id="路径_322" node-id="135" stroke="none" target-height="57.5" target-width="55.200012" target-x="867.6" target-y="459.2"></path><path d="M 898.40 463.00 L 872.30 510.00 L 887.90 513.80 L 919.80 465.20 Z" fill="#ffffff" fill-rule="nonzero" group-id="11,47,113,136" id="路径_323" node-id="136" stroke="none" target-height="50.799988" target-width="47.5" target-x="872.3" target-y="463"></path><path d="M 856.20 491.30 L 859.20 492.60 L 861.00 493.90 L 862.70 495.40 L 864.30 497.60 L 865.50 501.20 L 865.90 505.80 L 866.30 507.30 L 867.70 508.70 L 869.60 508.90 L 871.10 508.50 L 873.60 507.20 L 872.90 500.00 L 872.20 496.90 L 871.30 493.80 L 870.00 490.80 L 868.30 488.30 L 867.00 487.00 L 865.40 486.10 L 863.50 485.60 L 861.10 485.40 L 858.30 485.90 L 856.90 486.90 L 856.20 488.00 L 856.00 489.20 L 856.20 491.30 Z" fill="#f2939c" fill-rule="nonzero" group-id="11,47,114" id="路径_325" node-id="137" stroke="none" target-height="23.5" target-width="17.599976" target-x="856" target-y="485.4"></path><path d="M 818.60 508.40 L 863.40 477.70 L 867.30 475.40 L 871.40 473.50 L 875.60 472.00 L 880.10 470.90 L 881.60 470.90 L 883.60 471.60 L 884.30 472.30 L 884.60 473.20 L 884.50 474.40 L 883.00 476.90 L 881.20 478.50 L 875.50 482.00 L 862.30 489.20 L 859.80 491.10 L 858.50 492.60 L 857.40 494.80 L 856.60 498.60 L 856.90 500.40 L 857.60 502.10 L 858.90 503.90 L 860.60 505.40 L 862.30 506.10 L 864.10 506.50 L 868.70 506.40 L 871.50 505.60 L 875.20 503.50 L 875.20 516.40 L 858.50 543.00 L 825.10 549.30 L 801.10 531.20 Z" fill="#f9babe" fill-rule="nonzero" group-id="11,47,115" id="路径_324" node-id="138" stroke="none" target-height="78.399994" target-width="83.5" target-x="801.1" target-y="470.9"></path><path d="M 820.60 523.80 L 835.00 535.00 L 879.30 514.90 L 919.70 466.30 L 922.40 468.30 L 924.00 470.30 L 925.80 473.90 L 926.60 476.40 L 927.50 483.00 L 927.60 490.70 L 927.30 494.70 L 925.60 502.00 L 924.30 505.10 L 919.80 511.70 L 911.50 522.60 L 894.70 542.80 L 882.50 556.00 L 876.80 561.70 L 871.20 566.80 L 866.60 570.40 L 857.60 576.00 L 850.00 579.40 L 846.20 580.50 L 842.50 581.00 L 838.80 581.10 L 835.30 580.80 L 831.80 579.90 L 828.20 578.60 L 824.50 576.80 L 815.80 571.20 L 802.40 560.80 L 788.20 548.30 Z" fill="#fed1d0" fill-rule="nonzero" group-id="11,47,116" id="路径_326" node-id="139" stroke="none" target-height="114.79999" target-width="139.39996" target-x="788.2" target-y="466.3"></path><path d="M 741.70 466.80 L 745.40 464.40 L 748.20 463.20 L 754.40 461.70 L 758.20 461.30 L 761.90 461.30 L 765.90 461.80 L 770.00 462.80 L 774.10 464.30 L 778.20 466.50 L 782.40 469.40 L 786.50 473.00 L 796.70 483.00 L 812.70 500.50 L 831.10 522.00 L 821.40 534.20 L 809.80 546.20 L 798.30 556.20 L 790.90 561.60 L 791.00 569.00 L 790.10 579.20 L 789.50 582.30 L 788.40 585.10 L 787.20 587.00 L 690.90 585.50 L 705.70 541.90 L 711.40 526.00 L 719.00 506.40 L 732.10 480.50 L 737.80 471.30 L 741.70 466.80 Z" fill="#ffc702" fill-rule="nonzero" group-id="11,48" id="路径_327" node-id="140" stroke="none" target-height="125.70001" target-width="140.19995" target-x="690.9" target-y="461.3"></path><path d="M 756.60 517.00 L 770.20 537.20 L 777.90 547.50 L 785.30 556.20 L 787.70 558.60 L 791.30 561.20" fill="none" group-id="11,49" id="路径_328" node-id="141" stroke="#b68602" stroke-linecap="butt" stroke-width="2" target-height="44.200012" target-width="34.700012" target-x="756.6" target-y="517"></path><path d="M 791.20 785.00 L 790.20 810.40 L 848.10 816.60 L 848.80 795.80 Z" fill="#fdcfd3" fill-rule="nonzero" group-id="11,50,117" id="路径_334" node-id="143" stroke="none" target-height="31.599976" target-width="58.599976" target-x="790.2" target-y="785"></path><path d="M 781.30 849.20 L 780.60 861.00 L 889.70 862.80 L 889.50 850.80 Z" fill="#ffffff" fill-rule="nonzero" group-id="11,50,118" id="路径_336" node-id="144" stroke="none" target-height="13.599976" target-width="109.10004" target-x="780.6" target-y="849.2"></path><path d="M 788.20 805.30 L 849.20 814.00 L 873.80 828.00 L 883.80 834.10 L 885.90 836.50 L 887.60 839.10 L 888.80 841.90 L 889.60 844.90 L 889.90 848.00 L 889.70 851.20 L 781.60 849.00 Z" fill="#29201c" fill-rule="nonzero" group-id="11,50,119" id="路径_335" node-id="145" stroke="none" target-height="45.900024" target-width="108.30005" target-x="781.6" target-y="805.3"></path><g clip-path="url(#clip-path-2)" group-id="11,50,120" id="蒙版组_17" node-id="146"><path d="M 784.20 824.20 L 801.60 849.80" fill="none" group-id="11,50,120,137" id="路径_337" node-id="147" stroke="#ffffff" stroke-linecap="butt" stroke-width="3" target-height="25.599976" target-width="17.399963" target-x="784.2" target-y="824.2"></path><path d="M 809.60 805.90 L 810.50 812.60 L 812.10 818.80 L 813.40 821.90 L 816.30 826.30 L 819.40 828.70 L 822.20 829.80 L 832.60 832.70 L 836.10 833.90 L 839.20 835.60 L 841.10 837.10 L 842.60 838.80 L 843.90 840.90 L 844.80 843.20 L 845.30 846.10 L 845.30 849.80" fill="none" group-id="11,50,120,138" id="路径_338" node-id="148" stroke="#ffffff" stroke-linecap="butt" stroke-width="3" target-height="43.899963" target-width="35.700012" target-x="809.6" target-y="805.9"></path><path d="M 858.30 819.20 L 847.90 826.70" fill="none" group-id="11,50,120,139" id="路径_339" node-id="149" stroke="#ffffff" stroke-linecap="butt" stroke-width="3" target-height="7.5" target-width="10.399963" target-x="847.9" target-y="819.2"></path><path d="M 867.50 824.50 L 854.60 833.30" fill="none" group-id="11,50,120,140" id="路径_340" node-id="150" stroke="#ffffff" stroke-linecap="butt" stroke-width="3" target-height="8.799988" target-width="12.900024" target-x="854.6" target-y="824.5"></path><path d="M 876.70 829.80 L 863.90 838.60" fill="none" group-id="11,50,120,141" id="路径_341" node-id="151" stroke="#ffffff" stroke-linecap="butt" stroke-width="3" target-height="8.799988" target-width="12.799988" target-x="863.9" target-y="829.8"></path></g><path d="M 902.40 771.80 L 904.10 797.20 L 962.30 797.20 L 960.80 776.40 Z" fill="#fdcfd3" fill-rule="nonzero" group-id="11,51,121" id="路径_334-2" node-id="153" stroke="none" target-height="25.400024" target-width="59.899963" target-x="902.4" target-y="771.8"></path><path d="M 899.30 836.70 L 899.80 848.40 L 1008.50 838.80 L 1007.10 826.90 Z" fill="#ffffff" fill-rule="nonzero" group-id="11,51,122" id="路径_336-2" node-id="154" stroke="none" target-height="21.5" target-width="109.20001" target-x="899.3" target-y="826.9"></path><path d="M 901.50 792.20 L 963.10 794.50 L 989.10 805.90 L 999.70 810.90 L 1002.00 813.00 L 1004.00 815.50 L 1005.50 818.20 L 1006.60 821.10 L 1007.20 824.10 L 1007.30 827.30 L 899.50 836.50 Z" fill="#29201c" fill-rule="nonzero" group-id="11,51,123" id="路径_335-2" node-id="155" stroke="none" target-height="44.299988" target-width="107.79999" target-x="899.5" target-y="792.2"></path><g clip-path="url(#clip-path-3)" group-id="11,51,124" id="蒙版组_17-2" node-id="156"><path d="M 899.50 811.50 L 919.50 835.10" fill="none" group-id="11,51,124,142" id="路径_337-2" node-id="157" stroke="#ffffff" stroke-linecap="butt" stroke-width="3.0015745" target-height="23.599976" target-width="20" target-x="899.5" target-y="811.5"></path><path d="M 922.90 790.60 L 924.50 797.20 L 926.70 803.20 L 928.30 806.10 L 931.60 810.20 L 935.00 812.20 L 937.90 813.10 L 948.60 814.80 L 952.20 815.70 L 955.50 817.10 L 957.40 818.30 L 959.20 819.90 L 960.70 821.90 L 961.80 824.10 L 962.60 826.90 L 963.00 830.50" fill="none" group-id="11,51,124,143" id="路径_338-2" node-id="158" stroke="#ffffff" stroke-linecap="butt" stroke-width="3.0015745" target-height="39.900024" target-width="40.099976" target-x="922.9" target-y="790.6"></path><path d="M 972.70 798.70 L 963.10 807.30" fill="none" group-id="11,51,124,144" id="路径_339-2" node-id="159" stroke="#ffffff" stroke-linecap="butt" stroke-width="3.0015745" target-height="8.599976" target-width="9.600037" target-x="963.1" target-y="798.7"></path><path d="M 982.40 803.00 L 970.50 813.20" fill="none" group-id="11,51,124,145" id="路径_340-2" node-id="160" stroke="#ffffff" stroke-linecap="butt" stroke-width="3.0015745" target-height="10.200012" target-width="11.900024" target-x="970.5" target-y="803"></path><path d="M 992.20 807.30 L 980.30 817.50" fill="none" group-id="11,51,124,146" id="路径_341-2" node-id="161" stroke="#ffffff" stroke-linecap="butt" stroke-width="3.0015745" target-height="10.200012" target-width="11.900024" target-x="980.3" target-y="807.3"></path></g><path d="M 750.90 672.40 L 777.90 682.40 L 786.00 685.50 L 793.30 688.90 L 798.80 692.80 L 801.70 695.50 L 804.30 698.50 L 806.50 701.80 L 808.50 706.70 L 808.90 709.40 L 808.90 712.00 L 808.30 714.80 L 803.70 726.10 L 799.60 737.50 L 791.20 763.30 L 784.40 785.20 L 863.80 805.90 L 881.50 707.40 L 861.80 667.10 L 846.30 651.60 Z" fill="#009786" fill-rule="nonzero" group-id="11,52" id="路径_332" node-id="162" stroke="none" target-height="154.30005" target-width="130.59998" target-x="750.9" target-y="651.6"></path><path d="M 788.20 669.00 L 820.90 681.50 L 825.80 684.00 L 828.60 685.90 L 831.30 688.50 L 832.90 690.50 L 835.40 695.60 L 836.10 698.50 L 836.30 701.80 L 836.10 705.80 L 835.40 710.40 L 830.80 731.70 L 822.10 764.90 L 814.30 792.90" fill="none" group-id="11,53" id="路径_333" node-id="163" stroke="#018e80" stroke-linecap="butt" stroke-width="3" target-height="123.900024" target-width="48.099976" target-x="788.2" target-y="669"></path><path d="M 692.80 584.70 L 687.40 595.80 L 685.30 601.10 L 682.10 612.00 L 680.50 621.50 L 680.20 626.40 L 680.40 631.30 L 681.00 636.20 L 682.20 641.00 L 683.80 645.30 L 685.80 649.30 L 688.30 652.90 L 690.90 656.20 L 693.90 659.20 L 697.10 661.80 L 703.80 666.20 L 709.10 668.70 L 714.10 670.60 L 719.10 671.90 L 723.40 672.60 L 741.20 673.80 L 752.30 673.90 L 765.40 673.60 L 783.80 672.30 L 843.50 664.60 L 848.10 665.00 L 850.00 665.60 L 853.10 667.60 L 855.00 669.80 L 857.80 674.10 L 863.50 689.00 L 874.80 721.10 L 895.80 783.10 L 971.50 775.30 L 961.20 742.50 L 947.10 699.50 L 939.40 677.20 L 932.00 656.90 L 925.30 640.40 L 922.10 633.70 L 911.80 616.70 L 907.80 610.90 L 903.50 605.70 L 900.40 602.40 L 897.00 599.50 L 893.30 596.80 L 889.30 594.50 L 884.60 592.50 L 879.30 590.70 L 873.90 589.50 L 867.50 588.60 L 860.00 588.10 L 840.30 587.50 L 770.30 586.60 Z" fill="#00a59b" fill-rule="nonzero" group-id="11,54" id="路径_329" node-id="164" stroke="none" target-height="198.39996" target-width="291.3" target-x="680.2" target-y="584.7"></path><path d="M 707.70 585.50 L 707.40 593.90 L 707.40 605.50 L 708.10 611.80 L 709.00 614.90 L 710.30 618.10 L 712.20 621.40 L 713.80 623.40 L 718.10 627.20 L 723.80 630.30 L 727.50 631.50 L 731.20 632.30 L 735.70 632.90 L 756.30 633.20 L 793.80 634.40 L 832.70 636.20 L 839.80 636.80 L 850.10 638.70 L 855.80 640.30 L 861.60 642.60 L 865.50 644.50 L 872.50 649.40 L 875.60 652.40 L 878.40 655.80 L 880.70 659.70 L 885.40 670.90 L 891.30 687.30 L 897.90 707.00 L 910.80 747.70 L 920.80 780.40" fill="none" group-id="11,55" id="路径_330" node-id="165" stroke="#a8f7f5" stroke-linecap="butt" stroke-width="3" target-height="194.90002" target-width="213.39996" target-x="707.4" target-y="585.5"></path><path d="M 707.30 598.90 L 712.20 597.90 L 716.90 596.50 L 721.50 594.60 L 725.90 592.30 L 730.10 589.60 L 734.00 586.50" fill="none" group-id="11,56" id="路径_331" node-id="166" stroke="#a8f7f5" stroke-linecap="butt" stroke-width="3" target-height="12.400024" target-width="26.700012" target-x="707.3" target-y="586.5"></path></g></svg>